<?xml version="1.0" encoding="UTF-8"?>
<!--Generator: Apple Native CoreSVG 232.5-->
<!DOCTYPE svg
PUBLIC "-//W3C//DTD SVG 1.1//EN"
       "http://www.w3.org/Graphics/SVG/1.1/DTD/svg11.dtd">
<svg version="1.1" xmlns="http://www.w3.org/2000/svg" xmlns:xlink="http://www.w3.org/1999/xlink" width="81.6406" height="81.6797">
 <g>
  <rect height="81.6797" opacity="0" width="81.6406" x="0" y="0"/>
  <path d="M37.2266 81.6406L44.4141 81.6406C46.4453 81.6406 47.9297 80.4297 48.3594 78.4375L50.3906 69.8438C51.9141 69.3359 53.3984 68.75 54.6875 68.125L62.2266 72.7344C63.9062 73.7891 65.8203 73.6328 67.2266 72.2266L72.2656 67.2266C73.6719 65.8203 73.8672 63.7891 72.7344 62.1094L68.125 54.6484C68.7891 53.2812 69.375 51.875 69.8047 50.4688L78.4766 48.3984C80.4688 47.9688 81.6406 46.4844 81.6406 44.4531L81.6406 37.3828C81.6406 35.3906 80.4688 33.9062 78.4766 33.4766L69.8828 31.4062C69.375 29.8047 68.75 28.3594 68.2031 27.1484L72.8125 19.5703C73.9062 17.8906 73.7891 15.9766 72.3438 14.5703L67.2266 9.53125C65.7812 8.20312 64.0625 7.96875 62.3438 8.94531L54.6875 13.6719C53.4375 13.0078 51.9922 12.4219 50.3906 11.9141L48.3594 3.20312C47.9297 1.21094 46.4453 0 44.4141 0L37.2266 0C35.1953 0 33.7109 1.21094 33.2422 3.20312L31.2109 11.8359C29.6875 12.3438 28.2031 12.9297 26.875 13.6328L19.2969 8.94531C17.5781 7.96875 15.8203 8.16406 14.375 9.53125L9.29688 14.5703C7.85156 15.9766 7.69531 17.8906 8.82812 19.5703L13.3984 27.1484C12.8906 28.3594 12.2656 29.8047 11.7578 31.4062L3.16406 33.4766C1.17188 33.9062 0 35.3906 0 37.3828L0 44.4531C0 46.4844 1.17188 47.9688 3.16406 48.3984L11.8359 50.4688C12.2656 51.875 12.8516 53.2812 13.4766 54.6484L8.90625 62.1094C7.73438 63.7891 7.96875 65.8203 9.375 67.2266L14.375 72.2266C15.7812 73.6328 17.7344 73.7891 19.4141 72.7344L26.9141 68.125C28.2422 68.75 29.6875 69.3359 31.2109 69.8438L33.2422 78.4375C33.7109 80.4297 35.1953 81.6406 37.2266 81.6406ZM40.8203 54.6094C33.2422 54.6094 27.0312 48.3594 27.0312 40.7812C27.0312 33.2422 33.2422 27.0312 40.8203 27.0312C48.3984 27.0312 54.6094 33.2422 54.6094 40.7812C54.6094 48.3594 48.3984 54.6094 40.8203 54.6094Z" fill="#ffffff" fill-opacity="0.85"/>
 </g>
</svg>
